STARTFONT 2.1
COMMENT This font is still under development.
COMMENT You can use, copy, modify, distribute this file for free.
COMMENT
COMMENT 94.05.10 created by TAKAHASHI N. <ntakahas@etl.go.jp>
COMMENT   - single column Arabic characters for Mule
COMMENT 94.09.14 modified by TAKAHASHI N. <ntakahas@etl.go.jp>
COMMENT 
FONT -ETL-Fixed-Medium-R-Normal--16-160-72-72-C-80-MuleArabic-1
SIZE 16 72 72
FONTBOUNDINGBOX 8 25 0 -11
STARTPROPERTIES 18
FONTNAME_REGISTRY ""
FOUNDRY "ETL"
FAMILY_NAME "Fixed"
WEIGHT_NAME "Medium"
SLANT "R"
SETWIDITH_NAME "Normal"
ADD_STYLE_NAME ""
PIXEL_SIZE 16
POINT_SIZE 160
RESOLUTION_X 72
RESOLUTION_Y 72
SPACING "C"
AVERAGE_WIDTH 80
CHARSET_REGISTRY "MuleArabic"
CHARSET_ENCODING "1"
DEFAULT_CHAR 33
FONT_ASCENT 14
FONT_DESCENT 11
ENDPROPERTIES
CHARS 73
STARTCHAR Arabic space
ENCODING 33
SWIDTH 500 0
DWIDTH 8 0
BBX 8 25 0 -11
BITMAP
00
00
00
00
00
00
00
00
00
00
00
00
00
00
00
00
00
00
00
00
00
00
00
00
00
ENDCHAR
STARTCHAR Arabic exclamation mark
ENCODING 34
SWIDTH 500 0
DWIDTH 8 0
BBX 8 25 0 -11
BITMAP
00
00
00
08
1c
1c
1c
08
08
08
08
00
08
1c
08
00
00
00
00
00
00
00
00
00
00
ENDCHAR
STARTCHAR Arabic left parenthesis
ENCODING 35
SWIDTH 500 0
DWIDTH 8 0
BBX 8 25 0 -11
BITMAP
00
00
00
00
04
0c
08
18
10
10
10
10
10
18
08
0c
04
00
00
00
00
00
00
00
00
ENDCHAR
STARTCHAR Arabic right parenthesis
ENCODING 36
SWIDTH 500 0
DWIDTH 8 0
BBX 8 25 0 -11
BITMAP
00
00
00
00
20
30
10
18
08
08
08
08
08
18
10
30
20
00
00
00
00
00
00
00
00
ENDCHAR
STARTCHAR Arabic comma
ENCODING 37
SWIDTH 500 0
DWIDTH 8 0
BBX 8 25 0 -11
BITMAP
00
00
00
00
00
00
00
00
00
08
10
10
18
1c
08
00
00
00
00
00
00
00
00
00
00
ENDCHAR
STARTCHAR Arabic period
ENCODING 38
SWIDTH 500 0
DWIDTH 8 0
BBX 8 25 0 -11
BITMAP
00
00
00
00
00
00
00
00
00
00
00
00
08
1c
08
00
00
00
00
00
00
00
00
00
00
ENDCHAR
STARTCHAR Arabic colon
ENCODING 39
SWIDTH 500 0
DWIDTH 8 0
BBX 8 25 0 -11
BITMAP
00
00
00
00
00
00
00
08
1c
08
00
00
08
1c
08
00
00
00
00
00
00
00
00
00
00
ENDCHAR
STARTCHAR Arabic semicolon
ENCODING 40
SWIDTH 500 0
DWIDTH 8 0
BBX 8 25 0 -11
BITMAP
00
00
00
00
00
08
10
18
1c
08
00
00
08
1c
08
00
00
00
00
00
00
00
00
00
00
ENDCHAR
STARTCHAR Arabic question mark
ENCODING 41
SWIDTH 500 0
DWIDTH 8 0
BBX 8 25 0 -11
BITMAP
00
00
00
1c
36
22
20
10
10
08
08
00
08
1c
08
00
00
00
00
00
00
00
00
00
00
ENDCHAR
STARTCHAR Arabic left guillemet
ENCODING 42
SWIDTH 500 0
DWIDTH 8 0
BBX 8 25 0 -11
BITMAP
00
00
00
00
00
00
12
24
24
48
48
24
24
12
00
00
00
00
00
00
00
00
00
00
00
ENDCHAR
STARTCHAR Arabic right guillemet
ENCODING 43
SWIDTH 500 0
DWIDTH 8 0
BBX 8 25 0 -11
BITMAP
00
00
00
00
00
00
48
24
24
12
12
24
24
48
00
00
00
00
00
00
00
00
00
00
00
ENDCHAR
STARTCHAR This position shall not be used.
ENCODING 44
SWIDTH 500 0
DWIDTH 8 0
BBX 8 25 0 -11
BITMAP
00
00
00
00
00
00
00
00
00
00
00
00
00
00
00
00
00
00
00
00
00
00
00
00
00
ENDCHAR
STARTCHAR hamza isolated
ENCODING 45
SWIDTH 500 0
DWIDTH 8 0
BBX 8 25 0 -11
BITMAP
00
00
00
00
00
00
00
1c
34
20
36
1c
30
60
00
00
00
00
00
00
00
00
00
00
00
ENDCHAR
STARTCHAR madda on alif isolated
ENCODING 46
SWIDTH 500 0
DWIDTH 8 0
BBX 8 25 0 -11
BITMAP
32
4c
00
10
10
10
10
10
18
18
08
08
08
08
08
00
00
00
00
00
00
00
00
00
00
ENDCHAR
STARTCHAR madda on alif final
ENCODING 47
SWIDTH 500 0
DWIDTH 8 0
BBX 8 25 0 -11
BITMAP
32
4c
00
10
10
10
10
10
10
10
10
18
0f
07
00
00
00
00
00
00
00
00
00
00
00
ENDCHAR
STARTCHAR hamza on alif isolated
ENCODING 48
SWIDTH 500 0
DWIDTH 8 0
BBX 8 25 0 -11
BITMAP
18
30
18
20
10
10
10
10
18
18
08
08
08
08
08
00
00
00
00
00
00
00
00
00
00
ENDCHAR
STARTCHAR hamza on alif final
ENCODING 49
SWIDTH 500 0
DWIDTH 8 0
BBX 8 25 0 -11
BITMAP
18
30
18
20
10
10
10
10
10
10
10
18
0f
07
00
00
00
00
00
00
00
00
00
00
00
ENDCHAR
STARTCHAR hamza on waaw isolated
ENCODING 50
SWIDTH 500 0
DWIDTH 8 0
BBX 8 25 0 -11
BITMAP
00
00
18
30
18
20
00
00
00
1c
3e
26
3e
1e
06
04
1c
f0
00
00
00
00
00
00
00
ENDCHAR
STARTCHAR hamza on waaw final
ENCODING 51
SWIDTH 500 0
DWIDTH 8 0
BBX 8 25 0 -11
BITMAP
00
00
18
30
18
20
00
00
00
1c
3e
26
3f
1f
06
04
1c
f0
00
00
00
00
00
00
00
ENDCHAR
STARTCHAR hamza under alif isolated
ENCODING 52
SWIDTH 500 0
DWIDTH 8 0
BBX 8 25 0 -11
BITMAP
00
00
00
10
10
10
10
10
18
18
08
08
08
08
08
00
00
00
18
30
18
20
00
00
00
ENDCHAR
STARTCHAR hamza under alif final
ENCODING 53
SWIDTH 500 0
DWIDTH 8 0
BBX 8 25 0 -11
BITMAP
00
00
00
10
10
10
10
10
10
10
10
18
0f
07
00
00
00
18
30
18
20
00
00
00
00
ENDCHAR
STARTCHAR hamza on yaa initial
ENCODING 54
SWIDTH 500 0
DWIDTH 8 0
BBX 8 25 0 -11
BITMAP
00
0c
18
0c
10
00
00
08
0c
0c
04
0c
f8
f0
00
00
00
00
00
00
00
00
00
00
00
ENDCHAR
STARTCHAR hamza on yaa medial
ENCODING 55
SWIDTH 500 0
DWIDTH 8 0
BBX 8 25 0 -11
BITMAP
00
00
00
18
30
18
20
00
00
10
10
38
ff
cf
00
00
00
00
00
00
00
00
00
00
00
ENDCHAR
STARTCHAR alif isolated
ENCODING 56
SWIDTH 500 0
DWIDTH 8 0
BBX 8 25 0 -11
BITMAP
00
00
00
10
10
10
10
10
18
18
08
08
08
08
08
00
00
00
00
00
00
00
00
00
00
ENDCHAR
STARTCHAR alif final
ENCODING 57
SWIDTH 500 0
DWIDTH 8 0
BBX 8 25 0 -11
BITMAP
00
00
00
10
10
10
10
10
10
10
10
18
0f
07
00
00
00
00
00
00
00
00
00
00
00
ENDCHAR
STARTCHAR baa initial
ENCODING 58
SWIDTH 500 0
DWIDTH 8 0
BBX 8 25 0 -11
BITMAP
00
00
00
00
00
00
00
08
0c
0c
04
0c
f8
f0
00
00
08
1c
08
00
00
00
00
00
00
ENDCHAR
STARTCHAR baa medial
ENCODING 59
SWIDTH 500 0
DWIDTH 8 0
BBX 8 25 0 -11
BITMAP
00
00
00
00
00
00
00
00
00
10
10
38
ff
cf
00
00
10
38
10
00
00
00
00
00
00
ENDCHAR
STARTCHAR taa marbuTa isolated
ENCODING 60
SWIDTH 500 0
DWIDTH 8 0
BBX 8 25 0 -11
BITMAP
00
00
24
7e
24
00
00
08
1c
1c
36
26
3e
1c
00
00
00
00
00
00
00
00
00
00
00
ENDCHAR
STARTCHAR taa marbuTa final
ENCODING 61
SWIDTH 500 0
DWIDTH 8 0
BBX 8 25 0 -11
BITMAP
00
00
48
fc
48
00
10
10
38
38
6c
4e
7f
79
00
00
00
00
00
00
00
00
00
00
00
ENDCHAR
STARTCHAR taa initial
ENCODING 62
SWIDTH 500 0
DWIDTH 8 0
BBX 8 25 0 -11
BITMAP
00
00
24
7e
24
00
00
08
0c
0c
04
0c
f8
f0
00
00
00
00
00
00
00
00
00
00
00
ENDCHAR
STARTCHAR taa medial
ENCODING 63
SWIDTH 500 0
DWIDTH 8 0
BBX 8 25 0 -11
BITMAP
00
00
00
00
48
fc
48
00
00
10
10
38
ff
cf
00
00
00
00
00
00
00
00
00
00
00
ENDCHAR
STARTCHAR thaa initial
ENCODING 64
SWIDTH 500 0
DWIDTH 8 0
BBX 8 25 0 -11
BITMAP
08
1c
08
14
3e
14
00
08
0c
0c
04
0c
f8
f0
00
00
00
00
00
00
00
00
00
00
00
ENDCHAR
STARTCHAR thaa medial
ENCODING 65
SWIDTH 500 0
DWIDTH 8 0
BBX 8 25 0 -11
BITMAP
00
10
38
10
28
7c
28
00
00
10
10
38
ff
cf
00
00
00
00
00
00
00
00
00
00
00
ENDCHAR
STARTCHAR daal isolated
ENCODING 66
SWIDTH 500 0
DWIDTH 8 0
BBX 8 25 0 -11
BITMAP
00
00
00
00
00
00
00
18
0c
06
02
02
7e
3c
00
00
00
00
00
00
00
00
00
00
00
ENDCHAR
STARTCHAR daal final
ENCODING 67
SWIDTH 500 0
DWIDTH 8 0
BBX 8 25 0 -11
BITMAP
00
00
00
00
00
00
00
10
18
08
0c
0c
7f
33
00
00
00
00
00
00
00
00
00
00
00
ENDCHAR
STARTCHAR dhaal isolated
ENCODING 68
SWIDTH 500 0
DWIDTH 8 0
BBX 8 25 0 -11
BITMAP
00
00
10
38
10
00
00
18
0c
06
02
02
7e
3c
00
00
00
00
00
00
00
00
00
00
00
ENDCHAR
STARTCHAR dhaal final
ENCODING 69
SWIDTH 500 0
DWIDTH 8 0
BBX 8 25 0 -11
BITMAP
00
00
10
38
10
00
00
10
18
08
0c
0c
7f
33
00
00
00
00
00
00
00
00
00
00
00
ENDCHAR
STARTCHAR raa isolated
ENCODING 70
SWIDTH 500 0
DWIDTH 8 0
BBX 8 25 0 -11
BITMAP
00
00
00
00
00
00
00
00
00
00
00
00
0c
0c
06
02
02
06
fc
78
00
00
00
00
00
ENDCHAR
STARTCHAR raa final
ENCODING 71
SWIDTH 500 0
DWIDTH 8 0
BBX 8 25 0 -11
BITMAP
00
00
00
00
00
00
00
00
00
00
00
00
07
07
02
02
02
06
fc
78
00
00
00
00
00
ENDCHAR
STARTCHAR zaay isolated
ENCODING 72
SWIDTH 500 0
DWIDTH 8 0
BBX 8 25 0 -11
BITMAP
00
00
00
00
00
00
00
08
1c
08
00
00
0c
0c
06
02
02
06
fc
78
00
00
00
00
00
ENDCHAR
STARTCHAR zaay final
ENCODING 73
SWIDTH 500 0
DWIDTH 8 0
BBX 8 25 0 -11
BITMAP
00
00
00
00
00
00
00
04
0e
04
00
00
07
07
02
02
02
06
fc
78
00
00
00
00
00
ENDCHAR
STARTCHAR ayn initial
ENCODING 74
SWIDTH 500 0
DWIDTH 8 0
BBX 8 25 0 -11
BITMAP
00
00
00
00
00
00
00
1c
3e
60
60
30
fe
fc
00
00
00
00
00
00
00
00
00
00
00
ENDCHAR
STARTCHAR ayn medial
ENCODING 75
SWIDTH 500 0
DWIDTH 8 0
BBX 8 25 0 -11
BITMAP
00
00
00
00
00
00
00
00
3c
3c
18
18
ff
e7
00
00
00
00
00
00
00
00
00
00
00
ENDCHAR
STARTCHAR ghayn initial
ENCODING 76
SWIDTH 500 0
DWIDTH 8 0
BBX 8 25 0 -11
BITMAP
00
00
10
38
10
00
00
1c
3e
60
60
30
fe
fc
00
00
00
00
00
00
00
00
00
00
00
ENDCHAR
STARTCHAR ghayn medial
ENCODING 77
SWIDTH 500 0
DWIDTH 8 0
BBX 8 25 0 -11
BITMAP
00
00
00
10
38
10
00
00
3c
3c
18
18
ff
e7
00
00
00
00
00
00
00
00
00
00
00
ENDCHAR
STARTCHAR faa initial
ENCODING 78
SWIDTH 500 0
DWIDTH 8 0
BBX 8 25 0 -11
BITMAP
00
10
38
10
00
00
18
3c
24
3c
14
0c
f8
f0
00
00
00
00
00
00
00
00
00
00
00
ENDCHAR
STARTCHAR faa medial
ENCODING 79
SWIDTH 500 0
DWIDTH 8 0
BBX 8 25 0 -11
BITMAP
00
00
00
10
38
10
00
00
18
3c
24
18
ff
e7
00
00
00
00
00
00
00
00
00
00
00
ENDCHAR
STARTCHAR qaaf initial
ENCODING 80
SWIDTH 500 0
DWIDTH 8 0
BBX 8 25 0 -11
BITMAP
00
48
fc
48
00
00
18
3c
24
3c
14
0c
f8
f0
00
00
00
00
00
00
00
00
00
00
00
ENDCHAR
STARTCHAR qaaf medial
ENCODING 81
SWIDTH 500 0
DWIDTH 8 0
BBX 8 25 0 -11
BITMAP
00
00
00
24
7e
24
00
00
18
3c
24
18
ff
e7
00
00
00
00
00
00
00
00
00
00
00
ENDCHAR
STARTCHAR laam initial
ENCODING 82
SWIDTH 500 0
DWIDTH 8 0
BBX 8 25 0 -11
BITMAP
00
00
08
0c
08
08
08
08
08
08
08
18
f0
e0
00
00
00
00
00
00
00
00
00
00
00
ENDCHAR
STARTCHAR laam medial
ENCODING 83
SWIDTH 500 0
DWIDTH 8 0
BBX 8 25 0 -11
BITMAP
00
00
10
10
10
10
10
10
10
10
18
38
ef
c7
00
00
00
00
00
00
00
00
00
00
00
ENDCHAR
STARTCHAR miim isolated
ENCODING 84
SWIDTH 500 0
DWIDTH 8 0
BBX 8 25 0 -11
BITMAP
00
00
00
00
00
00
00
00
00
0c
1e
12
3e
7c
40
40
40
40
40
40
40
40
40
00
00
ENDCHAR
STARTCHAR miim initial
ENCODING 85
SWIDTH 500 0
DWIDTH 8 0
BBX 8 25 0 -11
BITMAP
00
00
00
00
00
00
00
00
0c
1e
32
7a
de
8c
00
00
00
00
00
00
00
00
00
00
00
ENDCHAR
STARTCHAR miim medial
ENCODING 86
SWIDTH 500 0
DWIDTH 8 0
BBX 8 25 0 -11
BITMAP
00
00
00
00
00
00
00
00
00
18
3c
66
ff
b9
00
00
00
00
00
00
00
00
00
00
00
ENDCHAR
STARTCHAR miim final
ENCODING 87
SWIDTH 500 0
DWIDTH 8 0
BBX 8 25 0 -11
BITMAP
00
00
00
00
00
00
00
00
00
00
1c
3e
73
5f
4c
40
40
40
40
40
40
40
40
00
00
ENDCHAR
STARTCHAR nuun initial
ENCODING 88
SWIDTH 500 0
DWIDTH 8 0
BBX 8 25 0 -11
BITMAP
00
00
00
08
1c
08
00
00
08
0c
04
0c
f8
f0
00
00
00
00
00
00
00
00
00
00
00
ENDCHAR
STARTCHAR nuun medial
ENCODING 89
SWIDTH 500 0
DWIDTH 8 0
BBX 8 25 0 -11
BITMAP
00
00
00
00
10
38
10
00
00
10
10
38
ff
cf
00
00
00
00
00
00
00
00
00
00
00
ENDCHAR
STARTCHAR haa isolated
ENCODING 90
SWIDTH 500 0
DWIDTH 8 0
BBX 8 25 0 -11
BITMAP
00
00
00
00
00
00
00
10
38
38
6c
4c
7c
38
00
00
00
00
00
00
00
00
00
00
00
ENDCHAR
STARTCHAR haa initial
ENCODING 91
SWIDTH 500 0
DWIDTH 8 0
BBX 8 25 0 -11
BITMAP
00
00
00
00
00
00
60
78
3e
2a
2a
3e
fc
e0
00
00
00
00
00
00
00
00
00
00
00
ENDCHAR
STARTCHAR haa medial
ENCODING 92
SWIDTH 500 0
DWIDTH 8 0
BBX 8 25 0 -11
BITMAP
00
00
00
00
00
00
00
00
00
0c
1c
24
ff
ff
3c
24
34
1c
08
00
00
00
00
00
00
ENDCHAR
STARTCHAR haa final
ENCODING 93
SWIDTH 500 0
DWIDTH 8 0
BBX 8 25 0 -11
BITMAP
00
00
00
00
00
00
10
10
38
38
6c
4e
7f
79
00
00
00
00
00
00
00
00
00
00
00
ENDCHAR
STARTCHAR waaw isolated
ENCODING 94
SWIDTH 500 0
DWIDTH 8 0
BBX 8 25 0 -11
BITMAP
00
00
00
00
00
00
00
00
00
1c
3e
26
3e
1e
06
04
1c
f0
00
00
00
00
00
00
00
ENDCHAR
STARTCHAR waaw final
ENCODING 95
SWIDTH 500 0
DWIDTH 8 0
BBX 8 25 0 -11
BITMAP
00
00
00
00
00
00
00
00
00
1c
3e
26
3f
1f
06
04
1c
f0
00
00
00
00
00
00
00
ENDCHAR
STARTCHAR yaa initial
ENCODING 96
SWIDTH 500 0
DWIDTH 8 0
BBX 8 25 0 -11
BITMAP
00
00
00
00
00
00
00
00
08
0c
04
0c
f8
f0
00
00
24
7e
24
00
00
00
00
00
00
ENDCHAR
STARTCHAR yaa medial
ENCODING 97
SWIDTH 500 0
DWIDTH 8 0
BBX 8 25 0 -11
BITMAP
00
00
00
00
00
00
00
00
00
10
10
38
ff
cf
00
00
48
fc
48
00
00
00
00
00
00
ENDCHAR
STARTCHAR laam + madda on alif isolated
ENCODING 98
SWIDTH 500 0
DWIDTH 8 0
BBX 8 25 0 -11
BITMAP
72
9c
00
82
c3
63
22
32
12
14
0c
0c
0c
14
3c
18
00
00
00
00
00
00
00
00
00
ENDCHAR
STARTCHAR laam + hamza on alif isolated
ENCODING 99
SWIDTH 500 0
DWIDTH 8 0
BBX 8 25 0 -11
BITMAP
30
60
30
c2
c3
63
22
32
12
14
0c
0c
0c
14
3c
18
00
00
00
00
00
00
00
00
00
ENDCHAR
STARTCHAR laam + hamza under alif isolated
ENCODING 100
SWIDTH 500 0
DWIDTH 8 0
BBX 8 25 0 -11
BITMAP
00
00
00
82
c3
63
22
32
12
14
0c
0c
0c
14
3c
18
60
c0
60
80
00
00
00
00
00
ENDCHAR
STARTCHAR laam + alif isolated
ENCODING 101
SWIDTH 500 0
DWIDTH 8 0
BBX 8 25 0 -11
BITMAP
00
00
00
82
c3
63
22
32
12
14
0c
0c
0c
14
3c
18
00
00
00
00
00
00
00
00
00
ENDCHAR
STARTCHAR paa initial
ENCODING 102
SWIDTH 500 0
DWIDTH 8 0
BBX 8 25 0 -11
BITMAP
00
00
00
00
00
00
00
08
0c
0c
04
0c
f8
f0
00
00
14
3e
14
08
1c
08
00
00
00
ENDCHAR
STARTCHAR paa medial
ENCODING 103
SWIDTH 500 0
DWIDTH 8 0
BBX 8 25 0 -11
BITMAP
00
00
00
00
00
00
00
00
00
10
10
38
ff
cf
00
00
28
7c
28
10
38
10
00
00
00
ENDCHAR
STARTCHAR zhaa isolated
ENCODING 104
SWIDTH 500 0
DWIDTH 8 0
BBX 8 25 0 -11
BITMAP
00
00
00
00
08
1c
08
14
3e
14
00
00
0c
0c
06
02
02
06
fc
78
00
00
00
00
00
ENDCHAR
STARTCHAR zhaa final
ENCODING 105
SWIDTH 500 0
DWIDTH 8 0
BBX 8 25 0 -11
BITMAP
00
00
00
00
04
0e
04
0a
1f
0a
00
00
07
07
02
02
02
06
fc
78
00
00
00
00
00
ENDCHAR
ENDFONT
